<svg width="41" height="38" viewBox="0 0 41 38" fill="none"   xmlns="http://www.w3.org/2000/svg">
  <defs>
    <style>
      .cls-1 {
        fill: #08b683;
      }

      .cls-2 {
        fill: #fff;
      }
    </style>
  </defs>
  <path class="cls-1" d="M39.66,4.74c0,1.01,0,.67,.04,1.68,.03,.7-.14,1.91-.76,2.16-.6,.24-1.13,.1-1.5-.12-.59-.58-1.27-1.21-1.83-1.81-.4-.43-.87,.19-1.25,.57-2.63,2.71-5.29,5.4-7.95,8.1-1.8,1.82-3.22,1.82-5.09,.04-1.64-1.56-3.33-3.08-4.96-4.66-.5-.49-.77-.48-1.29-.01-4.02,3.55-8.06,7.08-12.12,10.59-.99,.86-1.87,.86-2.53,.13-.6-.68-.52-1.5-.03-2.06,.83-.96,1.84-1.76,2.79-2.61,1.59-1.4,3.19-2.79,4.8-4.17,1.47-1.27,2.94-2.54,4.45-3.77,.55-.45,.92-1.06,1.56-1.44,1.47-.86,2.56-.82,3.76,.32,1.75,1.66,3.51,3.3,5.21,5.01,.58,.58,.95,.7,1.56,.06,2.34-2.42,4.72-4.79,7.08-7.18,.05-.06,.57-.75,.57-.75,.52-.66,.33-.62-.1-1-.55-.48-1.2-.91-1.42-1.7-.35-1.23,.2-2.06,1.46-2.07,1.95-.01,3.89-.01,5.84,0,1.23,.01,1.67,.47,1.68,1.7,.01,1.01,0,2.02,0,3.03Z"/>
  <path class="cls-1" d="M39.45,24.89c0,3.17,0,6.34,0,9.51,0,1.6-.59,2.21-2.2,2.23-1.51,.02-3.03,.04-4.54,0-1.31-.04-1.92-.69-1.93-2.02-.01-6.52-.01-13.04,0-19.56,0-1.32,.77-2.06,2.08-2.07,1.48,0,2.95,0,4.43,0,1.45,0,2.14,.7,2.14,2.19,0,3.24,0,6.48,0,9.73h0Z"/>
  <path class="cls-1" d="M17.37,28.22c0-2.05,0-4.1,0-6.16,0-1.58,.78-2.39,2.37-2.42,1.44-.03,2.88-.03,4.32,.02,1.31,.04,2.17,.88,2.18,2.18,.03,4.32,.02,8.64,0,12.96,0,1.14-1,2.13-2.12,2.16-1.62,.04-3.24,.03-4.86,0-1.16-.03-1.87-.89-1.88-2.27-.02-2.16,0-4.32,0-6.48Z"/>
  <path class="cls-1" d="M13.05,30.81c0,1.22,.02,2.44,0,3.67-.03,1.6-.94,2.51-2.52,2.52-1.51,0-3.02-.04-4.53,0-1.12,.04-1.94-.88-1.96-2.14-.03-2.62,.03-5.25,0-7.87-.02-1.65,.83-2.23,2.14-2.31,1.58-.1,3.16-.06,4.74-.01,1.23,.03,2.07,.94,2.11,2.26,.04,1.29,0,2.59,0,3.88h0Z"/>
</svg>
