<?xml version="1.0" encoding="UTF-8"?>
<svg id="Camada_1" data-name="Camada 1" xmlns="http://www.w3.org/2000/svg"   width="200" height="60" viewBox="0 0 176.49 37">
  <defs>
    <style>
      .cls-1 {
        fill: #08b683;
      }

      .cls-2 {
        fill: #fff;
      }
    </style>
  </defs>
  <path class="cls-2" d="M65.27,14.41c-1.64-2.14-3.7-3.27-6.21-3.82-2.83-.62-5.72-.3-8.58-.37-.93-.03-1.34,.48-1.34,1.42,.02,3.02,0,6.05,0,9.07s-.01,6.12,0,9.18c0,1.24,.28,1.49,1.5,1.5,1.19,0,2.38,0,3.56,0,2.06,0,4.12,.03,6.12-.64,2.99-1,5.23-2.86,6.33-5.82,1.38-3.71,1.12-7.2-1.4-10.51Zm-2.81,8.94c-.89,2.45-2.78,3.85-5.42,4.12-.89,.09-1.79,.07-2.69,.14-.57,.05-.73-.14-.72-.71,.03-2.02,.01-4.03,.01-6.05h0c0-1.94,.04-3.89-.02-5.83-.02-.78,.24-.92,.96-.94,2.47-.06,4.81,.19,6.6,2.18,1.9,2.1,2.19,4.55,1.27,7.08Z"/>
  <path class="cls-2" d="M122.25,12.06c0-2.87,.36-2.8-2.94-2.77-.07,0-.14,0-.22,0-.8,.1-1.22,.4-1.18,1.36,.09,2.03,.03,4.07,.03,6.4-.53-.64-.96-1-1.46-1.24-2.43-1.19-4.7-1.25-7.08,.39-1.45,1-2.38,2.16-2.99,3.73-.85,2.18-.8,4.39-.13,6.55,1.04,3.39,3.86,5.68,7.72,5.17,1.71-.22,3.02-.98,4.23-2.2q0,1.88,1.73,1.89c.29,0,.58,0,.86,0,.99,.02,1.46-.34,1.45-1.46-.05-5.93-.03-11.87-.02-17.81Zm-6.04,15.43c-1.4,.77-2.82,.73-4.18-.12-1.48-.92-2.26-3.12-1.84-5.07,.43-1.97,1.74-3.29,3.53-3.56,2.48-.37,4.56,1.74,4.57,4.91-.14,1.39-.49,2.95-2.1,3.84Z"/>
  <path class="cls-2" d="M137.92,9.3c-.74,.05-1.07,.34-1.07,1.11,.02,2.15,0,4.31,0,6.68-1.65-1.81-3.53-2.34-5.73-2.07-2.67,.32-4.37,1.9-5.49,4.17-1.28,2.62-1.3,5.33-.2,8.02,1.79,4.4,6.53,5.74,10.3,3.44,.48-.29,.86-.76,1.36-1.21,.01,1.83,.07,1.89,1.77,1.89,.22,0,.43,0,.65,0,1.37-.03,1.55-.2,1.55-1.55,0-5.87,0-11.73,0-17.6,0-2.94-.18-3.1-3.17-2.88Zm-5.81,18.59c-1.95-.42-3.28-2.45-3.15-4.77,.19-3.27,3.04-5.29,5.77-4.04,1.81,.83,2.45,2.4,2.41,5,0,2.54-2.13,4.44-5.02,3.81Z"/>
  <path class="cls-1" d="M39.66,4.74c0,1.01,0,.67,.04,1.68,.03,.7-.14,1.91-.76,2.16-.6,.24-1.13,.1-1.5-.12-.59-.58-1.27-1.21-1.83-1.81-.4-.43-.87,.19-1.25,.57-2.63,2.71-5.29,5.4-7.95,8.1-1.8,1.82-3.22,1.82-5.09,.04-1.64-1.56-3.33-3.08-4.96-4.66-.5-.49-.77-.48-1.29-.01-4.02,3.55-8.06,7.08-12.12,10.59-.99,.86-1.87,.86-2.53,.13-.6-.68-.52-1.5-.03-2.06,.83-.96,1.84-1.76,2.79-2.61,1.59-1.4,3.19-2.79,4.8-4.17,1.47-1.27,2.94-2.54,4.45-3.77,.55-.45,.92-1.06,1.56-1.44,1.47-.86,2.56-.82,3.76,.32,1.75,1.66,3.51,3.3,5.21,5.01,.58,.58,.95,.7,1.56,.06,2.34-2.42,4.72-4.79,7.08-7.18,.05-.06,.57-.75,.57-.75,.52-.66,.33-.62-.1-1-.55-.48-1.2-.91-1.42-1.7-.35-1.23,.2-2.06,1.46-2.07,1.95-.01,3.89-.01,5.84,0,1.23,.01,1.67,.47,1.68,1.7,.01,1.01,0,2.02,0,3.03Z"/>
  <path class="cls-1" d="M39.45,24.89c0,3.17,0,6.34,0,9.51,0,1.6-.59,2.21-2.2,2.23-1.51,.02-3.03,.04-4.54,0-1.31-.04-1.92-.69-1.93-2.02-.01-6.52-.01-13.04,0-19.56,0-1.32,.77-2.06,2.08-2.07,1.48,0,2.95,0,4.43,0,1.45,0,2.14,.7,2.14,2.19,0,3.24,0,6.48,0,9.73h0Z"/>
  <path class="cls-2" d="M77.82,14.93c-5.19-.08-8.26,3.64-8.51,7.47-.4,6.18,4.02,9.52,8.25,9.39,4.92-.15,8.62-3.58,8.6-8.43,.12-4.78-3.52-8.35-8.35-8.42Zm-.05,13.02c-2.24,.02-4.36-1.82-4.19-4.63,.02-2.65,1.77-4.52,4.23-4.51,2.43,0,4.19,1.96,4.17,4.64-.01,2.56-1.84,4.48-4.22,4.51Z"/>
  <path class="cls-2" d="M154.76,29.67c-1.16,1.12-2.42,1.83-4.09,1.98-2.82,.25-5.23-1.15-6.09-3.84-.23-.71-.35-1.43-.34-2.19,.03-2.95,.04-5.91,0-8.86-.01-1.02,.37-1.42,1.39-1.4,2.78,.07,2.83-.35,2.9,2.92,.05,2.3,0,4.61,.07,6.91,.05,1.66,.93,2.62,2.45,2.87,1.18,.19,2.69-.86,3.13-2.17,.28-.82,.39-1.65,.39-2.52,0-2.34,.04-4.68,.01-7.02,0-.75,.33-1.01,1.01-1.02,3.58-.04,3.19-.1,3.19,2.97,0,3.85,0,7.71,0,11.56,0,1.23-.21,1.42-1.44,1.45-.25,0-.5,0-.76,0q-1.66,0-1.83-1.66Z"/>
  <path class="cls-2" d="M92.69,17.49c.95-1.98,3.74-2.81,5.36-2.5,4.15,.79,5.19,3.27,5.34,6.36,.13,2.77,.04,5.54,.02,8.32,0,1.28-.26,1.51-1.49,1.54-.54,.01-1.08-.04-1.62,0-.97,.09-1.22-.44-1.21-1.27,0-2.59,0-5.19,0-7.78,0-.81-.12-1.59-.6-2.29-.68-1.01-2.31-1.27-3.35-1-1.09,.27-1.96,1.42-2.08,2.71-.24,2.55-.07,5.11-.11,7.67-.03,1.93-.06,2-2,1.98-2.27-.03-2.26,.29-2.25-2.29,.01-4.07,.02-8.14-.01-12.21,0-1.02,.28-1.57,1.39-1.41,.18,.03,.36,0,.54,0q2.03,0,2.08,2.17Z"/>
  <path class="cls-2" d="M172.54,29.61c-2.01,2.26-5.58,2.67-7.6,1.41-1.87-1.16-2.81-2.81-2.95-4.91-.2-3.11-.05-6.22-.04-9.33,0-1.01,.34-1.43,1.38-1.43,2.84-.01,2.8-.04,2.85,2.83,.04,2.44-.21,4.9,.14,7.33,.23,1.59,1.18,2.43,2.69,2.52,1.22,.07,2.49-.9,2.93-2.14,.32-.93,.37-1.87,.36-2.84-.02-2.02-.02-4.03,0-6.05,0-.43-.09-1.05,.15-1.25,.94-.79,2.12-.39,3.2-.36,.62,.02,.86,.65,.86,1.28,0,4.47,0,8.93,0,13.4,0,.83-.41,1.26-1.25,1.25-.36,0-.72,.01-1.08,0-1.47-.02-1.56-.1-1.62-1.72Z"/>
  <path class="cls-1" d="M17.37,28.22c0-2.05,0-4.1,0-6.16,0-1.58,.78-2.39,2.37-2.42,1.44-.03,2.88-.03,4.32,.02,1.31,.04,2.17,.88,2.18,2.18,.03,4.32,.02,8.64,0,12.96,0,1.14-1,2.13-2.12,2.16-1.62,.04-3.24,.03-4.86,0-1.16-.03-1.87-.89-1.88-2.27-.02-2.16,0-4.32,0-6.48Z"/>
  <path class="cls-1" d="M13.05,30.81c0,1.22,.02,2.44,0,3.67-.03,1.6-.94,2.51-2.52,2.52-1.51,0-3.02-.04-4.53,0-1.12,.04-1.94-.88-1.96-2.14-.03-2.62,.03-5.25,0-7.87-.02-1.65,.83-2.23,2.14-2.31,1.58-.1,3.16-.06,4.74-.01,1.23,.03,2.07,.94,2.11,2.26,.04,1.29,0,2.59,0,3.88h0Z"/>
</svg>